# xmcd
#
# Track frame offsets: 
#        150
#        15713
#        27375
#        47113
#        82838
#        99114
#        125414
#        152215
#        169602
#        187316
#        199454
#        209955
#        222544
#        234281
#        245581
#        258744
#        279931
#        291320
#
# Disc length: 3974 seconds
#
# Revision: 5
# Processed by: cddbd v1.5.2PL0 Copyright (c) Steve Scherf et al.
# Submitted via: ExactAudioCopyFreeDBPlugin 1.0
#
DISCID=130f8412
DTITLE=Various Artist - 1993 - Route 66
DYEAR=1993
DGENRE=Rock and Roll
TTITLE0=Steppenwolf - Born To Be Wild
TTITLE1=The Troggs - Wild Thing
TTITLE2=The Steve Miller Band - The Joker
TTITLE3=Golden Earring - Twilight Zone
TTITLE4=Manfred Mann's Earth Band - Davy's On The Road Again
TTITLE5=Sniff 'N' The Tears - Driver's Seat
TTITLE6=Duncan Browne - The Wild Places
TTITLE7=10 cc - Wall Street Shuffle
TTITLE8=Joe Cocker - Feelin' Alright
TTITLE9=Lovin' Spoonful - Summer In The City
TTITLE10=The Kinks - Till The End Of The Day
TTITLE11=Black Sabbath - Paranoid
TTITLE12=Uriah Heep - Easy Livin'
TTITLE13=Yardbirds feat. Eric Clapton - For Your Love
TTITLE14=John Fred And The Playboy Band - Judy In Disguise With Glasse
TTITLE14=s
TTITLE15=Buddy Guy - Mustang Sally
TTITLE16=John Lee Hooker - Boom Boom
TTITLE17=Chuck Berry - Route 66
EXTD=Arcade Benelux BV\nStereo\nCD: 01 8310.6\nMC: 01 8310.4
EXTT0=Steppenwolf
EXTT1=The Troggs
EXTT2=The Steve Miller Band
EXTT3=Golden Earring
EXTT4=Manfred Mann's Earth Band
EXTT5=Sniff 'N' The Tears
EXTT6=Duncan Browne
EXTT7=Ten CC
EXTT8=Joe Cocker
EXTT9=Lovin' Spoonful
EXTT10=The Kinks
EXTT11=Black Sabbath
EXTT12=Uriah Heep
EXTT13=Yardbirds featuring Eric Clapton
EXTT14=John Fred And The Playboy Band
EXTT15=Buddy Guy
EXTT16=John Lee Hooker
EXTT17=Chuck Berry
PLAYORDER=
